<?xml version="1.0" encoding="UTF-8"?>
<svg xmlns="http://www.w3.org/2000/svg" xmlns:xlink="http://www.w3.org/1999/xlink" width="96pt" height="96pt" viewBox="0 0 96 96" version="1.1">
<g id="surface1">
<path style=" stroke:none;fill-rule:nonzero;fill:#FFA500;fill-opacity:1;" d="M 48 24 C 22.992188 24 3.75 46.03125 3.75 46.03125 L 1.96875 48 L 3.75 49.96875 C 3.75 49.96875 21.292969 69.972656 44.625 71.8125 C 45.738281 71.953125 46.851563 72 48 72 C 49.148438 72 50.261719 71.953125 51.375 71.8125 C 74.707031 69.972656 92.25 49.96875 92.25 49.96875 L 94.03125 48 L 92.25 46.03125 C 92.25 46.03125 73.007813 24 48 24 Z M 48 30 C 54.609375 30 60.703125 31.804688 66 34.21875 C 67.910156 37.382813 69 41.027344 69 45 C 69 55.839844 60.867188 64.746094 50.34375 65.90625 C 50.285156 65.917969 50.214844 65.894531 50.15625 65.90625 C 49.441406 65.941406 48.726563 66 48 66 C 47.203125 66 46.429688 65.953125 45.65625 65.90625 C 35.132813 64.746094 27 55.839844 27 45 C 27 41.085938 28.054688 37.441406 29.90625 34.3125 L 29.8125 34.3125 C 35.15625 31.851563 41.320313 30 48 30 Z M 48 36 C 43.03125 36 39 40.03125 39 45 C 39 49.96875 43.03125 54 48 54 C 52.96875 54 57 49.96875 57 45 C 57 40.03125 52.96875 36 48 36 Z M 21.75 38.8125 C 21.28125 40.828125 21 42.855469 21 45 C 21 50.261719 22.5 55.183594 25.125 59.34375 C 17.566406 54.972656 12.316406 49.757813 10.59375 48 C 12.035156 46.523438 16.054688 42.609375 21.75 38.8125 Z M 74.25 38.8125 C 79.945313 42.609375 83.964844 46.523438 85.40625 48 C 83.683594 49.757813 78.433594 54.972656 70.875 59.34375 C 73.5 55.183594 75 50.261719 75 45 C 75 42.855469 74.71875 40.804688 74.25 38.8125 Z "/>
</g>
</svg>
